<svg width="14" height="15" viewBox="0 0 14 15" fill="none" xmlns="http://www.w3.org/2000/svg">
    <path fill-rule="evenodd" clip-rule="evenodd" d="M0.29292 1.24309C0.683444 0.852564 1.31661 0.852565 1.70713 1.24309L7.00001 6.53597L12.2929 1.24309C12.6834 0.852564 13.3166 0.852564 13.7071 1.24309C14.0976 1.63361 14.0976 2.26678 13.7071 2.6573L8.41422 7.95019L13.7071 13.2431C14.0976 13.6336 14.0976 14.2668 13.7071 14.6573C13.3166 15.0478 12.6834 15.0478 12.2929 14.6573L7.00001 9.3644L1.70711 14.6573C1.31658 15.0478 0.683418 15.0478 0.292893 14.6573C-0.0976311 14.2668 -0.0976311 13.6336 0.292893 13.2431L5.58579 7.95019L0.292918 2.6573C-0.0976057 2.26678 -0.097605 1.63361 0.29292 1.24309Z" fill="#CA4A4A"/>
</svg>