<svg width="11" height="11" viewBox="0 0 11 11" fill="none" xmlns="http://www.w3.org/2000/svg">
<path d="M10.8234 6.29341C10.9374 6.18753 11 6.04636 11 5.89688C11 5.7474 10.9374 5.60622 10.8234 5.50242L10.4634 5.16816C10.2287 4.95017 9.84634 4.95017 9.61382 5.16816L5.50224 8.98612L1.38618 5.16401C1.27439 5.05813 1.12236 5 0.961383 5C0.800406 5 0.648375 5.05813 0.536586 5.16401L0.176626 5.49827C0.062602 5.60415 -3.24883e-08 5.74325 -3.90223e-08 5.89273C-4.55562e-08 6.0422 0.062602 6.18338 0.176626 6.28719L5.0752 10.838C5.18923 10.9439 5.34126 11.002 5.50224 10.9999C5.66321 10.9999 5.81524 10.9418 5.92927 10.838L10.8234 6.29341Z" fill="#A9A9A9"/>
</svg>