<svg width="30" height="35" viewBox="0 0 30 35" fill="none" xmlns="http://www.w3.org/2000/svg">
<path fill-rule="evenodd" clip-rule="evenodd" d="M4.65 12.6002C4.35 15.9002 4.35 19.8002 4.8 23.1002C5.1 24.9002 6.3 26.4002 7.95 26.5502L9.6 26.7002C13.2 27.0002 16.65 27.0002 20.25 26.7002L21.9 26.5502C23.55 26.4002 24.9 24.9002 25.05 23.1002C25.5 19.8002 25.5 15.9002 25.2 12.6002C25.2 12.1502 25.05 11.8502 25.05 11.4002C24.75 9.6002 23.55 8.1002 21.9 7.9502L20.25 7.8002C16.8 7.5002 13.2 7.5002 9.75 7.8002L7.95 7.9502C6.3 8.1002 4.95 9.6002 4.8 11.4002C4.8 11.7002 4.65 12.1502 4.65 12.6002ZM9.75 9.7502C13.2 9.4502 16.65 9.4502 20.1 9.7502L21.75 9.9002C22.65 10.0502 23.25 10.6502 23.4 11.7002C23.4 11.8502 23.4 11.8502 23.4 12.0002L17.1 15.9002C15.6 16.8002 13.95 16.8002 12.45 15.9002L6.45 12.0002C6.45 11.8502 6.45 11.8502 6.45 11.7002C6.6 10.8002 7.2 10.0502 8.1 9.9002L9.75 9.7502ZM23.85 14.1002C24 16.9502 24 19.9502 23.55 22.8002C23.4 23.7002 22.8 24.4502 21.9 24.6002L20.25 24.7502C16.8 25.0502 13.35 25.0502 9.9 24.7502L8.25 24.6002C7.35 24.4502 6.75 23.8502 6.6 22.8002C6.15 19.9502 6 16.9502 6.15 14.1002L11.85 17.7002C13.8 18.9002 16.2 18.9002 18.15 17.7002L23.85 14.1002Z" fill="#888888"/>
</svg>
