<svg width="27" height="23" viewBox="0 0 27 23" fill="none" xmlns="http://www.w3.org/2000/svg">
<path d="M13.2964 22.4984C12.9544 22.4993 12.6155 22.4324 12.2994 22.3018C11.9833 22.1712 11.6961 21.9794 11.4544 21.7373L2.54673 12.8297C1.84306 12.1184 1.28798 11.2742 0.913817 10.3462C0.539658 9.41823 0.353907 8.42507 0.367383 7.4246C0.374163 6.50774 0.561759 5.60124 0.919425 4.75701C1.27709 3.91277 1.7978 3.1474 2.45172 2.50473C3.10565 1.86205 3.87994 1.35469 4.73025 1.01172C5.58056 0.668755 6.49018 0.496912 7.40701 0.506038C8.34025 0.496637 9.26587 0.674743 10.129 1.02979C10.9921 1.38484 11.7751 1.9096 12.4316 2.57295L13.2964 3.43778L14.0056 2.72862C15.2301 1.47167 16.8686 0.701065 18.6178 0.559548C20.3668 0.41803 22.1079 0.915186 23.5186 1.95894C24.3216 2.57733 24.9837 3.35969 25.4606 4.25395C25.9376 5.14821 26.2186 6.13384 26.2849 7.14519C26.3512 8.15654 26.2013 9.1704 25.845 10.1193C25.4888 11.0681 24.9346 11.9302 24.2191 12.6481L15.1385 21.7373C14.8967 21.9794 14.6096 22.1712 14.2934 22.3018C13.9773 22.4324 13.6385 22.4993 13.2964 22.4984ZM7.37242 2.22703C5.9978 2.22563 4.67658 2.75908 3.68829 3.71452C3.18445 4.19929 2.78376 4.78089 2.51032 5.42438C2.23686 6.06788 2.09629 6.76 2.09703 7.45919C2.08944 8.22828 2.2346 8.99124 2.52409 9.70381C2.81357 10.4164 3.24161 11.0644 3.78342 11.6103L12.6911 20.518C12.7715 20.599 12.8671 20.6634 12.9725 20.7072C13.0778 20.7512 13.191 20.7738 13.3051 20.7738C13.4192 20.7738 13.5323 20.7512 13.6377 20.7072C13.7431 20.6634 13.8388 20.599 13.9192 20.518L23.0084 11.4201C23.5418 10.8753 23.9541 10.2237 24.2179 9.5083C24.4818 8.79285 24.5911 8.02968 24.5391 7.26892C24.4929 6.50038 24.2812 5.75088 23.9185 5.07173C23.5558 4.39257 23.0507 3.7998 22.4376 3.334C21.3619 2.54087 20.0345 2.16585 18.7027 2.27881C17.371 2.39178 16.1258 2.98502 15.199 3.94802L13.9105 5.27119C13.8301 5.35226 13.7344 5.41659 13.629 5.4605C13.5237 5.5044 13.4106 5.527 13.2964 5.527C13.1823 5.527 13.0693 5.5044 12.9638 5.4605C12.8585 5.41659 12.7628 5.35226 12.6824 5.27119L11.2122 3.801C10.1996 2.79718 8.83285 2.23184 7.40701 2.22703H7.37242Z" fill="#FFFFFF"/>
</svg>
