<svg width="30" height="30" viewBox="0 0 30 30" fill="none" xmlns="http://www.w3.org/2000/svg">
<path fill-rule="evenodd" clip-rule="evenodd" d="M5.99988 12.1496C6.29988 7.64961 10.1999 4.34961 14.6999 4.34961H15.1499C19.6499 4.34961 23.5499 7.79961 23.8499 12.1496C23.9999 14.5496 23.2499 16.9496 21.7499 18.7496L16.6499 24.7496C15.7499 25.7996 13.9499 25.7996 13.0499 24.7496L7.94988 18.7496C6.59988 16.9496 5.84988 14.5496 5.99988 12.1496ZM14.6999 5.84961C10.9499 5.84961 7.79988 8.69961 7.49988 12.2996C7.49988 14.2496 8.09988 16.3496 9.29988 17.8496L14.3999 23.8496C14.6999 24.1496 15.2999 24.1496 15.5999 23.8496L20.6999 17.8496C22.0499 16.3496 22.6499 14.3996 22.4999 12.2996C22.1999 8.69961 19.0499 5.84961 15.2999 5.84961H14.6999Z" fill="#888888"/>
</svg>
