<svg width="30" height="32" viewBox="0 0 30 32" fill="none" xmlns="http://www.w3.org/2000/svg">
<path fill-rule="evenodd" clip-rule="evenodd" d="M22.5 13.9269L22.4928 14.1855L22.5 14.4594L22.4931 14.7184L22.5 14.9918L22.4934 15.2525L22.5 15.5242L22.3195 23.0881C22.2766 24.8827 20.8526 26.3689 18.9906 26.5621C16.338 26.8373 13.6621 26.8373 11.0095 26.5621C9.14745 26.3689 7.72332 24.8827 7.68051 23.0881L7.50011 15.5242L7.50661 15.2507L7.50012 14.9918L7.50696 14.7194L7.50006 14.4594L7.50729 14.1867L7.5 13.9269L7.68222 7.4334C7.68477 7.3428 7.6914 7.25315 7.70199 7.1646L7.70613 7.12716L7.70941 7.09698C7.79898 6.21942 8.30638 5.45403 9.04583 4.99472C9.101 4.95956 9.15746 4.92608 9.21513 4.89434C9.27156 4.86234 9.32915 4.83198 9.38783 4.80336C9.75071 4.61981 10.1557 4.50084 10.5868 4.46282C13.5227 4.2038 16.4773 4.2038 19.4133 4.46282C19.8436 4.50078 20.2481 4.61943 20.6105 4.80248C20.6691 4.83107 20.7267 4.86138 20.7831 4.89335C20.8427 4.92602 20.9008 4.96056 20.9577 4.99689C21.6931 5.45519 22.1984 6.2166 22.2899 7.08974L22.2985 7.16886C22.3087 7.25603 22.3153 7.34426 22.3177 7.4334L22.5 13.9269ZM20.6379 7.34675L20.8122 14.6589L20.6709 19.696C20.6391 20.8283 19.7291 21.7591 18.5522 21.8629C16.1891 22.0714 13.811 22.0714 11.4479 21.8629C10.2709 21.7591 9.36087 20.8283 9.3291 19.696L9.18776 14.6595L9.36219 7.34675C9.36256 7.33101 9.36325 7.31535 9.36423 7.29975C9.43032 6.87138 9.68934 6.5016 10.0566 6.27707C10.1957 6.20756 10.3501 6.16145 10.5143 6.14441C13.4961 5.83493 16.5039 5.83493 19.4858 6.14441C19.6499 6.16145 19.8042 6.20751 19.9432 6.27698C20.3108 6.50157 20.5698 6.87153 20.6358 7.30011C20.6369 7.31559 20.6375 7.33113 20.6379 7.34675ZM15 25.8535C15.9206 25.8535 16.6667 25.1383 16.6667 24.2561C16.6667 23.374 15.9206 22.6589 15 22.6589C14.0796 22.6589 13.3334 23.374 13.3334 24.2561C13.3334 25.1383 14.0796 25.8535 15 25.8535Z" fill="#888888"/>
</svg>
