<svg width="24" height="18" viewBox="0 0 24 18" fill="none" xmlns="http://www.w3.org/2000/svg">
    <path d="M5.46967 16.5914C5.76256 16.8843 6.23744 16.8843 6.53033 16.5914L11.3033 11.8184C11.5962 11.5256 11.5962 11.0507 11.3033 10.7578C11.0104 10.4649 10.5355 10.4649 10.2426 10.7578L6 15.0004L1.75736 10.7578C1.46447 10.4649 0.989593 10.4649 0.696699 10.7578C0.403806 11.0507 0.403806 11.5256 0.696699 11.8184L5.46967 16.5914ZM5.25 1.83887V16.0611H6.75V1.83887H5.25Z" fill="#888888"/>
    <path d="M18.5303 1.30854C18.2374 1.01564 17.7626 1.01564 17.4697 1.30854L12.6967 6.08151C12.4038 6.3744 12.4038 6.84927 12.6967 7.14217C12.9896 7.43506 13.4645 7.43506 13.7574 7.14217L18 2.89953L22.2426 7.14217C22.5355 7.43506 23.0104 7.43506 23.3033 7.14217C23.5962 6.84927 23.5962 6.3744 23.3033 6.08151L18.5303 1.30854ZM17.25 1.83887V16.0611H18.75V1.83887H17.25Z" fill="#888888"/>
</svg>