<svg width="30" height="30" viewBox="0 0 30 30" fill="none" xmlns="http://www.w3.org/2000/svg">
<g clip-path="url(#clip0_34_9284)">
<path d="M19.7064 5.00195H10.4289C7.19865 5.00195 4.56543 7.5835 4.56543 10.7504V19.8459C4.56543 23.0128 7.19865 25.5944 10.4289 25.5944H19.7064C22.9368 25.5944 25.5699 23.0128 25.5699 19.8459V10.7504C25.5853 7.5835 22.952 5.00195 19.7064 5.00195ZM23.4419 10.7504V19.8459C23.4419 21.8571 21.7733 23.493 19.7218 23.493H10.4289C8.37748 23.493 6.70876 21.8571 6.70876 19.8459V10.7504C6.70876 8.7392 8.37748 7.10322 10.4289 7.10322H19.7064C21.7579 7.10322 23.4419 8.7392 23.4419 10.7504Z" fill="url(#paint0_linear_34_9284)"/>
<path d="M15.0679 9.9248C12.0366 9.9248 9.57178 12.3413 9.57178 15.298C9.57178 18.2699 12.0366 20.6863 15.0679 20.6863C18.0991 20.6863 20.564 18.2699 20.564 15.298C20.564 12.3413 18.0991 9.9248 15.0679 9.9248ZM15.0679 18.585C13.2307 18.585 11.7151 17.1141 11.7151 15.313C11.7151 13.512 13.2154 12.0261 15.0679 12.0261C16.905 12.0261 18.4206 13.497 18.4206 15.313C18.4206 17.1141 16.9202 18.585 15.0679 18.585Z" fill="url(#paint1_linear_34_9284)"/>
<path d="M20.6239 8.39355C20.2259 8.39355 19.8432 8.54365 19.5675 8.82882C19.292 9.09898 19.1235 9.4742 19.1235 9.86444C19.1235 10.2547 19.2767 10.6299 19.5675 10.9001C19.8432 11.1702 20.2259 11.3353 20.6239 11.3353C21.022 11.3353 21.4047 11.1852 21.6803 10.9001C21.9559 10.6299 22.1243 10.2547 22.1243 9.86444C22.1243 9.4742 21.9712 9.09898 21.6803 8.82882C21.42 8.54365 21.022 8.39355 20.6239 8.39355Z" fill="url(#paint2_linear_34_9284)"/>
</g>
<defs>
<linearGradient id="paint0_linear_34_9284" x1="25.57" y1="7.11399" x2="8.43819" y2="25.933" gradientUnits="userSpaceOnUse">
<stop stop-color="#CF05D3"/>
<stop offset="1" stop-color="#FCC70D"/>
</linearGradient>
<linearGradient id="paint1_linear_34_9284" x1="20.564" y1="11.0285" x2="11.6121" y2="20.8756" gradientUnits="userSpaceOnUse">
<stop stop-color="#CF05D3"/>
<stop offset="1" stop-color="#FCC70D"/>
</linearGradient>
<linearGradient id="paint2_linear_34_9284" x1="22.1243" y1="8.69528" x2="19.6769" y2="11.3837" gradientUnits="userSpaceOnUse">
<stop stop-color="#CF05D3"/>
<stop offset="1" stop-color="#FCC70D"/>
</linearGradient>
<clipPath id="clip0_34_9284">
<rect width="30" height="30" fill="white"/>
</clipPath>
</defs>
</svg>
