<svg width="30" height="30" viewBox="0 0 30 30" fill="none" xmlns="http://www.w3.org/2000/svg">
<g clip-path="url(#clip0_34_9259)">
<path d="M20.3954 17.9217C20.3497 17.9034 18.7151 17.0907 18.4229 16.9903C18.3041 16.9446 18.1762 16.9081 18.0392 16.9081C17.8201 16.9081 17.6284 17.0177 17.4822 17.2368C17.3179 17.4833 16.8246 18.0587 16.6694 18.2322C16.6511 18.2596 16.6237 18.2778 16.6055 18.2778C16.5872 18.2778 16.3406 18.1773 16.2585 18.1408C14.4959 17.3738 13.1626 15.5383 12.98 15.2279C12.9525 15.1822 12.9525 15.1639 12.9525 15.1639C12.9616 15.1366 13.0165 15.0818 13.053 15.0544C13.1444 14.9631 13.2356 14.8534 13.3361 14.7348C13.3817 14.6801 13.4274 14.6252 13.464 14.5796C13.601 14.4243 13.6557 14.2964 13.7287 14.1596L13.7654 14.0864C13.9389 13.7486 13.7927 13.4564 13.7471 13.3651C13.7105 13.2921 13.0165 11.6118 12.9434 11.4383C12.7699 11.0183 12.5325 10.8174 12.2037 10.8174C12.1763 10.8174 12.2037 10.8174 12.0758 10.8265C11.9206 10.8356 11.0804 10.9452 10.7151 11.1735C10.3224 11.4201 9.65576 12.2145 9.65576 13.6024C9.65576 14.8534 10.4503 16.0314 10.7882 16.4881C10.7973 16.4972 10.8156 16.5246 10.8338 16.5519C12.1398 18.4604 13.7654 19.8758 15.4183 20.5333C17.0074 21.1633 17.7561 21.2364 18.1854 21.2364C18.368 21.2364 18.505 21.2182 18.6329 21.2091L18.7151 21.1999C19.263 21.1542 20.4685 20.5242 20.7425 19.7662C20.9616 19.1636 21.0164 18.5061 20.8704 18.2687C20.779 18.1134 20.6146 18.0313 20.3954 17.9217Z" fill="#69A94B"/>
<path d="M15.1999 5C9.10855 5 4.14968 9.92188 4.14968 15.9669C4.14968 17.9211 4.67021 19.8386 5.66564 21.5098L3.76611 27.1074C3.72958 27.2078 3.75698 27.3265 3.83004 27.4086C3.88483 27.4635 3.95789 27.5 4.04008 27.5C4.06748 27.5 4.10401 27.5 4.1314 27.4909L9.96699 25.6371C11.5652 26.4864 13.3734 26.943 15.1999 26.943C21.2911 26.943 26.25 22.0211 26.25 15.976C26.25 9.91274 21.2911 5 15.1999 5ZM15.1999 24.651C13.483 24.651 11.8117 24.1579 10.3871 23.2174C10.3414 23.1899 10.2866 23.1716 10.2227 23.1716C10.1953 23.1716 10.1588 23.1808 10.1314 23.1899L7.20901 24.1214L8.14965 21.3363C8.17705 21.2449 8.16791 21.1445 8.10399 21.0714C7.01724 19.583 6.43276 17.8206 6.43276 15.9851C6.43276 11.2003 10.3597 7.30114 15.1908 7.30114C20.0218 7.30114 23.9395 11.2003 23.9395 15.9851C23.9486 20.7519 20.0218 24.651 15.1999 24.651Z" fill="#69A94B"/>
</g>
<defs>
<clipPath id="clip0_34_9259">
<rect width="30" height="30" fill="white"/>
</clipPath>
</defs>
</svg>
